HIERARCHY
ROOT Hips
{
  OFFSET 1.44925e-005 102.336 -0.101585
  CHANNELS 6 Xposition Yposition Zposition Zrotation Xrotation Yrotation
  JOINT RightUpLeg
  {
    OFFSET -8.9458 -8.66707 0.101652
    CHANNELS 3 Zrotation Xrotation Yrotation
    JOINT RightLeg
    {
      OFFSET 0 -44.4227 1.3727
      CHANNELS 3 Zrotation Xrotation Yrotation
      JOINT RightFoot
      {
        OFFSET 0.253549 -42.0924 -1.46059
        CHANNELS 3 Zrotation Xrotation Yrotation
        JOINT RightToes
        {
          OFFSET 0.04 -4.41509 8.4991
          CHANNELS 3 Zrotation Xrotation Yrotation
          End Site
          {
            OFFSET -0.08 -0.137448 9.77979
          }
        }
      }
    }
  }
  JOINT Spine
  {
    OFFSET 0 11.8905 0
    CHANNELS 3 Zrotation Xrotation Yrotation
    JOINT Spine1
    {
      OFFSET 0 25.6574 0.127663
      CHANNELS 3 Zrotation Xrotation Yrotation
      JOINT HEad
      {
        OFFSET 0 8.73416 0.011341
        CHANNELS 3 Zrotation Xrotation Yrotation
        End Site
        {
          OFFSET -0.29 12.7742 2.51395
        }
      }
      JOINT LeftShoulder1
      {
        OFFSET 8.99 -0.362252 -0.22
        CHANNELS 3 Zrotation Xrotation Yrotation
        JOINT LeftArm
        {
          OFFSET 10.2827 -0.00337999 0.322123
          CHANNELS 3 Zrotation Xrotation Yrotation
          JOINT LeftForeArm
          {
            OFFSET 26.2597 0.099144 -1.42434
            CHANNELS 3 Zrotation Xrotation Yrotation
            JOINT LeftHand
            {
              OFFSET 22.0902 0.085362 1.02216
              CHANNELS 3 Zrotation Xrotation Yrotation
              End Site
              {
                OFFSET 13.419 -0.6 1.50291
              }
            }
          }
        }
      }
      JOINT RightShoulder
      {
        OFFSET -8.99 -0.362252 -0.22
        CHANNELS 3 Zrotation Xrotation Yrotation
        JOINT RightArm
        {
          OFFSET -10.2827 -0.00338 0.322123
          CHANNELS 3 Zrotation Xrotation Yrotation
          JOINT RightForeArm
          {
            OFFSET -26.364 0.099144 -1.42434
            CHANNELS 3 Zrotation Xrotation Yrotation
            JOINT RightHand
            {
              OFFSET -22.0324 0.085362 1.02216
              CHANNELS 3 Zrotation Xrotation Yrotation
              End Site
              {
                OFFSET -13.3284 -0.6 1.50291
              }
            }
          }
        }
      }
    }
  }
  JOINT LeftUpLeg
  {
    OFFSET 8.9458 -8.66707 0.101652
    CHANNELS 3 Zrotation Xrotation Yrotation
    JOINT LeftLeg
    {
      OFFSET 0 -44.4227 1.3727
      CHANNELS 3 Zrotation Xrotation Yrotation
      JOINT LeftFoot
      {
        OFFSET -0.253549 -42.0924 -1.46059
        CHANNELS 3 Zrotation Xrotation Yrotation
        JOINT LeftToes
        {
          OFFSET -0.04 -4.41509 8.4991
          CHANNELS 3 Zrotation Xrotation Yrotation
          End Site
          {
            OFFSET 0.08 -0.047448 9.77979
          }
        }
      }
    }
  }
}
MOTION
Frames:	7
Frame Time:	0.0333333
5.41168 101.051 71.424 0.0823284 3.41514 -154.501 -12.4544 -13.0898 -21.2532 -0.121341 39.5325 6.55604 7.9642 -19.8204 0.616142 0.0462048 0.000530889 0.662642 10.4896 17.6285 -1.91896 -5.19937 5.37685 0.614462 0.532218 -20.6426 -18.6803 -23.026 2.90277 -6.37309 -50.2425 11.0525 -43.4818 -35.1338 -10.8434 -41.3341 10.838 8.23042 -13.8374 29.104 4.8546 9.62797 36.5539 1.87416 30.892 -17.1899 30.2816 68.8527 -24.3102 10.2185 -7.04356 19.9791 -23.048 10.965 0.422053 27.4936 2.38528 -10.9949 -1.37552 0.592473 -1.25538e-009 8.75217e-006 -1.46653e-008 
6.83042 101.367 72.7697 0.313103 3.47972 -151.252 -11.5176 -13.3025 -22.4428 -0.236564 38.6493 4.15899 7.12918 -18.7886 0.463619 0.0462048 0.000530889 0.662642 11.2765 18.6541 -1.99225 -5.13742 5.4251 0.803387 0.916527 -20.3961 -21.4754 -22.7266 2.93853 -6.5917 -50.5823 12.8032 -44.508 -33.9899 -15.6197 -37.5808 12.2002 7.96254 -14.2192 27.7166 4.67736 9.6319 34.9007 5.28571 33.9031 -17.4367 32.8835 61.8863 -27.5499 10.0385 -6.06294 19.4862 -23.3557 10.2119 0.458173 34.5889 2.51637 -9.81698 -5.52112 0.201168 -1.25538e-009 8.75217e-006 -1.46653e-008 
7.97242 101.512 73.9153 0.80283 3.36087 -147.983 -11.0219 -13.8125 -24.0307 -0.311116 38.2068 2.51079 7.06712 -17.8372 0.402993 0.0462048 0.000530889 0.662642 12.2808 19.0139 -2.14084 -5.28724 5.16053 0.923588 1.62821 -19.3448 -23.8798 -22.3132 2.92942 -6.69713 -51.1285 14.3119 -44.1667 -33.6247 -21.0713 -34.6426 13.8746 7.66865 -14.261 27.0735 4.65201 9.80071 32.9129 9.30686 36.2049 -16.2774 34.8378 54.9011 -30.4517 9.7209 -4.75792 19.0835 -23.3554 8.70836 0.533515 41.7855 2.33179 -8.54268 -8.08971 0.000446295 -1.25538e-009 8.75217e-006 -1.46653e-008 
8.85003 101.525 74.9323 1.27498 3.25796 -144.828 -11.0675 -14.2877 -26.2379 -0.357133 38.1294 1.48442 7.02532 -17.035 0.35398 0.0462048 0.000530889 0.662642 13.3252 19.0602 -2.21368 -5.56347 4.80941 1.13353 2.51654 -17.9619 -26.3061 -21.9824 2.91307 -6.75157 -51.3494 15.6035 -42.7227 -34.3325 -26.5672 -33.1411 15.7801 7.36174 -14.0641 26.9068 4.72727 10.09 31.6171 12.9998 37.5726 -14.0877 35.3234 49.4085 -30.822 9.32268 -3.2386 18.8576 -22.3274 7.36701 0.678638 47.7564 3.9895 -7.75753 -10.3282 -0.138038 -1.25538e-009 8.75217e-006 -1.46653e-008 
9.53848 101.472 75.9152 1.58241 3.35825 -142.125 -11.2248 -14.6081 -28.07 -0.392839 38.1816 0.703383 6.76366 -16.3953 0.296856 0.0462048 0.000530889 0.662642 14.3057 19.072 -1.94812 -5.97278 4.61033 1.72832 3.52427 -16.3526 -29.1076 -21.9957 2.9039 -6.71505 -50.3218 17.1774 -40.8458 -34.9464 -30.061 -32.5534 17.9384 6.99102 -14.0433 27.056 4.84763 10.3894 31.1682 16.1641 38.3792 -11.6071 34.6114 45.5349 -28.6632 9.00554 -1.76955 19.0803 -19.866 6.48194 0.857691 51.3782 6.91218 -7.53796 -12.1515 -0.241554 -1.25538e-009 8.75217e-006 -1.46653e-008 
10.0725 101.414 76.8985 1.71008 3.41299 -139.755 -11.5558 -14.9849 -29.034 -0.430236 38.3244 -0.118861 7.15983 -15.762 0.290658 0.0462048 0.000530889 0.662642 15.1923 18.8853 -1.32453 -6.98334 4.63498 2.75883 4.75895 -14.6192 -32.3358 -22.3206 2.88452 -6.53934 -48.1969 18.8068 -38.7234 -34.9231 -30.1371 -32.5102 21.3977 6.42786 -13.8272 27.4037 4.991 10.6733 31.0713 19.3435 39.1621 -9.35146 33.4914 42.5304 -26.2587 8.88297 -0.871139 19.374 -16.5437 5.71907 0.988298 52.1156 8.89236 -6.41346 -12.9326 -0.237556 -1.25538e-009 8.75217e-006 -1.46653e-008 
10.3943 101.32 77.9634 1.77236 3.2281 -137.225 -12.3763 -15.6062 -29.6991 -0.489158 38.8 -1.35256 8.23258 -14.9066 0.311037 0.0462048 0.000530889 0.662642 16.1724 18.3556 -0.563942 -8.58152 4.89051 3.98998 6.08435 -13.282 -35.8524 -22.7623 2.83977 -6.24286 -46.329 19.1546 -35.9489 -34.7351 -26.6924 -33.4487 26.3595 5.64626 -13.435 27.6136 5.11 10.9369 31.2106 22.664 40.2341 -8.08702 32.8581 40.4894 -25.829 8.86466 -0.698394 19.4269 -13.1398 4.48744 0.970088 50.3558 8.89792 -5.27769 -12.9688 -0.184549 -1.25538e-009 8.75217e-006 -1.46653e-008 
